<?xml version="1.0" standalone="no"?>
<!DOCTYPE svg PUBLIC "-//W3C//DTD SVG 20010904//EN"
 "http://www.w3.org/TR/2001/REC-SVG-20010904/DTD/svg10.dtd">
<svg version="1.0" xmlns="http://www.w3.org/2000/svg"
 width="690.000000pt" height="690.000000pt" viewBox="0 0 690.000000 690.000000"
 preserveAspectRatio="xMidYMid meet">
<metadata>
Created by potrace 1.14, written by Peter Selinger 2001-2017
</metadata>
<g transform="translate(0.000000,690.000000) scale(0.100000,-0.100000)"
fill="#000000" stroke="none">
<path d="M3209 6896 c-2 -2 -20 -6 -39 -9 -216 -35 -423 -178 -537 -372 -49
-83 -90 -207 -101 -305 -4 -36 -7 -443 -7 -905 l1 -840 324 0 324 0 1 850 c1
929 -3 871 61 913 l34 22 1780 0 c979 0 1780 3 1781 8 0 4 2 150 2 325 l2 317
-1811 0 c-996 0 -1813 -2 -1815 -4z"/>
<path d="M60 2159 l0 -2159 325 0 324 0 0 523 c0 287 0 635 1 772 l0 250 782
-2 c431 -1 793 -2 805 -3 14 0 44 -27 90 -82 92 -112 106 -129 118 -142 6 -6
33 -38 60 -71 28 -33 52 -62 55 -65 3 -3 39 -45 80 -95 41 -49 77 -92 80 -95
3 -3 61 -72 129 -155 69 -82 130 -154 135 -160 6 -5 103 -120 216 -255 228
-273 217 -260 295 -353 l57 -67 384 0 384 0 0 46 c0 43 -5 51 -127 197 -71 84
-130 154 -133 157 -3 3 -39 46 -80 95 -41 50 -77 92 -80 95 -3 3 -60 70 -126
150 -66 80 -185 222 -263 315 -79 94 -159 190 -180 214 -20 24 -40 49 -46 55
-5 6 -44 52 -85 101 -41 50 -79 93 -85 97 -5 4 -7 9 -4 13 3 3 129 7 280 9
151 2 283 6 294 9 187 50 342 138 428 245 10 12 24 28 31 35 63 64 131 206
163 342 2 11 7 75 10 143 l6 122 -327 0 -326 0 0 -77 c0 -61 -5 -85 -20 -111
-40 -66 52 -62 -1492 -62 -1316 0 -1405 1 -1438 18 -19 9 -43 31 -53 49 -17
31 -18 66 -18 674 1 717 -2 684 71 721 33 17 122 18 1438 18 1556 0 1449 5
1492 -65 16 -26 20 -51 21 -129 l1 -96 325 0 326 0 -6 143 c-6 163 -22 236
-77 353 -81 170 -250 327 -421 390 -24 9 -80 24 -124 34 -74 16 -213 17 -1887
18 l-1808 0 0 -2159z"/>
<path d="M2527 3395 c2 -69 9 -157 17 -195 63 -302 301 -539 607 -604 91 -20
3675 -23 3681 -4 2 7 3 153 3 323 l-1 310 -1778 2 c-1961 3 -1821 -2 -1861 66
-15 25 -19 52 -20 127 l-1 95 -325 3 -325 2 3 -125z"/>
</g>
</svg>
